<mxfile host="Electron" modified="2023-10-26T13:39:05.985Z" agent="Mozilla/5.0 (Windows NT 10.0; Win64; x64) AppleWebKit/537.36 (KHTML, like Gecko) draw.io/21.6.8 Chrome/114.0.5735.289 Electron/25.5.0 Safari/537.36" etag="hqmkSUro1KigFqvFPgaz" version="21.6.8" type="device">
  <diagram name="Page-1" id="imuImgNp3bXYt6d5HMrX">
    <mxGraphModel dx="880" dy="524" grid="1" gridSize="5" guides="1" tooltips="1" connect="1" arrows="1" fold="1" page="1" pageScale="1" pageWidth="850" pageHeight="1100" math="1" shadow="0">
      <root>
        <mxCell id="0" />
        <mxCell id="1" parent="0" />
        <mxCell id="rpiSFUIxA-VU06frSyZt-4" value="" style="group;movable=0;resizable=0;rotatable=0;deletable=0;editable=0;locked=1;connectable=0;" vertex="1" connectable="0" parent="1">
          <mxGeometry x="80" y="65" width="590" height="30" as="geometry" />
        </mxCell>
        <mxCell id="rpiSFUIxA-VU06frSyZt-1" value="" style="endArrow=classic;html=1;rounded=0;" edge="1" parent="rpiSFUIxA-VU06frSyZt-4">
          <mxGeometry width="50" height="50" relative="1" as="geometry">
            <mxPoint y="15" as="sourcePoint" />
            <mxPoint x="560" y="15" as="targetPoint" />
          </mxGeometry>
        </mxCell>
        <mxCell id="rpiSFUIxA-VU06frSyZt-2" value="" style="endArrow=none;html=1;rounded=0;" edge="1" parent="rpiSFUIxA-VU06frSyZt-4">
          <mxGeometry width="50" height="50" relative="1" as="geometry">
            <mxPoint y="25" as="sourcePoint" />
            <mxPoint y="5" as="targetPoint" />
          </mxGeometry>
        </mxCell>
        <mxCell id="rpiSFUIxA-VU06frSyZt-3" value="$$j\omega$$" style="text;html=1;strokeColor=none;fillColor=none;align=center;verticalAlign=middle;whiteSpace=wrap;rounded=0;" vertex="1" parent="rpiSFUIxA-VU06frSyZt-4">
          <mxGeometry x="560" width="30" height="30" as="geometry" />
        </mxCell>
        <mxCell id="rpiSFUIxA-VU06frSyZt-5" value="" style="endArrow=none;html=1;rounded=0;movable=0;resizable=0;rotatable=0;deletable=0;editable=0;locked=1;connectable=0;" edge="1" parent="1">
          <mxGeometry width="50" height="50" relative="1" as="geometry">
            <mxPoint x="160" y="90" as="sourcePoint" />
            <mxPoint x="160" y="70" as="targetPoint" />
          </mxGeometry>
        </mxCell>
        <mxCell id="rpiSFUIxA-VU06frSyZt-6" value="" style="ellipse;whiteSpace=wrap;html=1;aspect=fixed;fillColor=#d5e8d4;strokeColor=#82b366;" vertex="1" parent="1">
          <mxGeometry x="75" y="74.64" width="10" height="10" as="geometry" />
        </mxCell>
        <mxCell id="rpiSFUIxA-VU06frSyZt-7" value="" style="shape=cross;whiteSpace=wrap;html=1;rotation=45;fillColor=#f8cecc;strokeColor=#b85450;size=0;movable=1;resizable=1;rotatable=1;deletable=1;editable=1;locked=0;connectable=1;" vertex="1" parent="1">
          <mxGeometry x="235" y="75.37" width="10" height="9.27" as="geometry" />
        </mxCell>
        <mxCell id="rpiSFUIxA-VU06frSyZt-13" value="" style="endArrow=none;html=1;rounded=0;movable=0;resizable=0;rotatable=0;deletable=0;editable=0;locked=1;connectable=0;" edge="1" parent="1">
          <mxGeometry width="50" height="50" relative="1" as="geometry">
            <mxPoint x="240" y="90" as="sourcePoint" />
            <mxPoint x="240" y="70" as="targetPoint" />
          </mxGeometry>
        </mxCell>
        <mxCell id="rpiSFUIxA-VU06frSyZt-14" value="" style="endArrow=none;html=1;rounded=0;movable=0;resizable=0;rotatable=0;deletable=0;editable=0;locked=1;connectable=0;" edge="1" parent="1">
          <mxGeometry width="50" height="50" relative="1" as="geometry">
            <mxPoint x="320" y="90" as="sourcePoint" />
            <mxPoint x="320" y="70" as="targetPoint" />
          </mxGeometry>
        </mxCell>
        <mxCell id="rpiSFUIxA-VU06frSyZt-15" value="" style="endArrow=none;html=1;rounded=0;movable=0;resizable=0;rotatable=0;deletable=0;editable=0;locked=1;connectable=0;" edge="1" parent="1">
          <mxGeometry width="50" height="50" relative="1" as="geometry">
            <mxPoint x="400" y="89.64" as="sourcePoint" />
            <mxPoint x="400" y="69.64" as="targetPoint" />
          </mxGeometry>
        </mxCell>
        <mxCell id="rpiSFUIxA-VU06frSyZt-16" value="" style="endArrow=none;html=1;rounded=0;movable=0;resizable=0;rotatable=0;deletable=0;editable=0;locked=1;connectable=0;" edge="1" parent="1">
          <mxGeometry width="50" height="50" relative="1" as="geometry">
            <mxPoint x="480" y="89.64" as="sourcePoint" />
            <mxPoint x="480" y="69.64" as="targetPoint" />
          </mxGeometry>
        </mxCell>
        <mxCell id="rpiSFUIxA-VU06frSyZt-17" value="" style="endArrow=none;html=1;rounded=0;movable=0;resizable=0;rotatable=0;deletable=0;editable=0;locked=1;connectable=0;" edge="1" parent="1">
          <mxGeometry width="50" height="50" relative="1" as="geometry">
            <mxPoint x="560" y="90.01" as="sourcePoint" />
            <mxPoint x="560" y="70.01" as="targetPoint" />
          </mxGeometry>
        </mxCell>
        <mxCell id="rpiSFUIxA-VU06frSyZt-18" value="&lt;font style=&quot;font-size: 8px;&quot;&gt;$$j0$$&lt;/font&gt;" style="text;html=1;strokeColor=none;fillColor=none;align=center;verticalAlign=middle;whiteSpace=wrap;rounded=0;" vertex="1" parent="1">
          <mxGeometry x="70" y="95" width="20" height="20" as="geometry" />
        </mxCell>
        <mxCell id="rpiSFUIxA-VU06frSyZt-19" value="&lt;font style=&quot;font-size: 8px;&quot;&gt;$$j1$$&lt;/font&gt;" style="text;html=1;strokeColor=none;fillColor=none;align=center;verticalAlign=middle;whiteSpace=wrap;rounded=0;" vertex="1" parent="1">
          <mxGeometry x="150" y="95" width="20" height="20" as="geometry" />
        </mxCell>
        <mxCell id="rpiSFUIxA-VU06frSyZt-20" value="&lt;font style=&quot;font-size: 8px;&quot;&gt;$$j\sqrt2$$&lt;/font&gt;" style="text;html=1;strokeColor=none;fillColor=none;align=center;verticalAlign=middle;whiteSpace=wrap;rounded=0;" vertex="1" parent="1">
          <mxGeometry x="230" y="95" width="20" height="20" as="geometry" />
        </mxCell>
        <mxCell id="rpiSFUIxA-VU06frSyZt-21" value="&lt;font style=&quot;font-size: 8px;&quot;&gt;$$j\sqrt\frac{7}{3}$$&lt;/font&gt;" style="text;html=1;strokeColor=none;fillColor=none;align=center;verticalAlign=middle;whiteSpace=wrap;rounded=0;" vertex="1" parent="1">
          <mxGeometry x="310" y="95" width="20" height="20" as="geometry" />
        </mxCell>
        <mxCell id="rpiSFUIxA-VU06frSyZt-23" value="&lt;font style=&quot;font-size: 8px;&quot;&gt;$$j\sqrt5$$&lt;/font&gt;" style="text;html=1;strokeColor=none;fillColor=none;align=center;verticalAlign=middle;whiteSpace=wrap;rounded=0;" vertex="1" parent="1">
          <mxGeometry x="390" y="95" width="20" height="20" as="geometry" />
        </mxCell>
        <mxCell id="rpiSFUIxA-VU06frSyZt-28" value="" style="shape=cross;whiteSpace=wrap;html=1;rotation=45;fillColor=#f8cecc;strokeColor=#b85450;size=0;movable=1;resizable=1;rotatable=1;deletable=1;editable=1;locked=0;connectable=1;" vertex="1" parent="1">
          <mxGeometry x="395" y="75.37" width="10" height="9.27" as="geometry" />
        </mxCell>
        <mxCell id="rpiSFUIxA-VU06frSyZt-29" value="" style="ellipse;whiteSpace=wrap;html=1;aspect=fixed;fillColor=#d5e8d4;strokeColor=#82b366;" vertex="1" parent="1">
          <mxGeometry x="315" y="75.37" width="10" height="10" as="geometry" />
        </mxCell>
        <mxCell id="rpiSFUIxA-VU06frSyZt-30" value="&lt;font style=&quot;font-size: 8px;&quot;&gt;$$Y_{11}$$&lt;/font&gt;" style="text;html=1;strokeColor=none;fillColor=none;align=center;verticalAlign=middle;whiteSpace=wrap;rounded=0;" vertex="1" parent="1">
          <mxGeometry x="45" y="70.37" width="20" height="20" as="geometry" />
        </mxCell>
      </root>
    </mxGraphModel>
  </diagram>
</mxfile>
